<?xml version="1.0" standalone="no"?>
<!DOCTYPE svg PUBLIC "-//W3C//DTD SVG 20010904//EN"
 "http://www.w3.org/TR/2001/REC-SVG-20010904/DTD/svg10.dtd">
<svg version="1.0" xmlns="http://www.w3.org/2000/svg"
 width="512.000000pt" height="512.000000pt" viewBox="0 0 512.000000 512.000000"
 preserveAspectRatio="xMidYMid meet">
<metadata>
Created by potrace 1.14, written by Peter Selinger 2001-2017
</metadata>
<g transform="translate(0.000000,512.000000) scale(0.100000,-0.100000)"
fill="#000000" stroke="none">
<path d="M737 4962 l158 -157 314 0 314 1 220 -221 c129 -129 226 -234 234
-254 8 -19 16 -55 18 -79 3 -45 -11 -102 -23 -102 -4 0 -74 68 -156 151 l-150
150 -53 -53 -53 -53 291 -291 c281 -281 291 -293 296 -335 4 -38 0 -49 -24
-77 -23 -27 -38 -35 -76 -39 l-48 -6 -164 164 -165 163 -54 -53 -54 -53 148
-148 c82 -81 156 -160 165 -174 47 -71 -39 -180 -126 -161 -18 4 -85 62 -186
161 -86 85 -160 154 -163 154 -3 0 -28 -23 -55 -50 l-50 -50 153 -153 c84 -84
157 -159 162 -167 31 -49 -7 -137 -68 -157 -55 -19 -85 1 -249 163 l-156 155
-54 -53 -53 -52 100 -101 c56 -55 105 -107 110 -115 26 -41 -1 -120 -50 -145
-33 -17 -78 -19 -100 -5 -8 5 -113 107 -233 226 l-217 218 -50 -49 c-28 -27
-50 -53 -50 -57 0 -5 103 -111 229 -237 214 -212 234 -229 286 -246 127 -39
266 17 319 130 9 19 18 35 19 35 1 0 25 -6 52 -13 92 -24 181 1 249 69 43 43
65 86 73 141 5 38 8 42 42 48 117 22 216 119 225 223 3 35 6 37 45 44 84 14
153 65 194 142 17 32 22 58 21 121 0 98 -15 125 -130 237 l-78 76 28 61 c31
69 41 163 24 231 -24 100 -53 137 -304 389 l-244 246 -315 0 -315 0 -83 83
-84 82 -106 0 -107 0 157 -158z"/>
<path d="M4162 5037 l-82 -82 -207 1 -208 0 -223 -221 -224 -222 53 -52 52
-52 201 199 201 198 210 0 210 -1 152 152 c84 84 153 155 153 158 0 3 -46 5
-103 5 l-102 0 -83 -83z"/>
<path d="M4965 4460 l-150 -150 -1 -533 c-1 -592 0 -578 -67 -611 -71 -34
-150 6 -161 82 -3 20 -4 142 -3 270 1 127 0 232 -3 232 -3 0 -228 -223 -500
-495 -273 -272 -503 -496 -513 -496 -59 -5 -73 -1 -105 26 -35 29 -49 84 -32
124 6 14 150 165 321 336 l309 309 -52 53 -53 53 -420 -420 c-289 -289 -430
-423 -450 -429 -87 -25 -174 74 -134 152 6 12 198 210 427 439 l417 418 -53
52 -52 53 -363 -362 c-199 -198 -372 -366 -384 -372 -96 -49 -198 61 -144 156
6 10 173 180 371 378 l360 359 -52 53 -53 53 -260 -259 c-143 -142 -269 -263
-280 -268 -71 -34 -155 27 -155 113 0 35 12 49 242 280 l242 244 -53 52 -52
52 -244 -244 c-272 -272 -288 -294 -284 -400 4 -97 54 -181 132 -221 l38 -20
-46 -51 c-52 -58 -74 -120 -70 -193 6 -94 65 -184 144 -219 l39 -18 -14 -40
c-33 -94 -3 -200 78 -273 109 -98 256 -92 365 16 l40 40 12 -28 c51 -119 221
-181 342 -124 31 15 152 129 414 391 204 203 372 370 375 370 3 0 5 -36 4 -79
-1 -177 86 -291 236 -306 86 -9 155 16 216 79 79 81 78 72 78 658 l1 508 78
78 78 78 -3 102 -3 102 -150 -150z"/>
<path d="M0 4429 l0 -104 83 -83 83 -82 -1 -268 0 -267 127 -126 126 -126 53
53 54 54 -105 104 -105 104 0 268 0 269 -153 150 c-84 82 -155 152 -158 154
-2 2 -4 -43 -4 -100z"/>
<path d="M3582 4347 l-52 -53 52 -51 c60 -58 53 -59 127 19 l33 36 -51 51
c-28 28 -52 51 -54 51 -1 0 -26 -24 -55 -53z"/>
<path d="M1402 4080 l-51 -50 50 -50 c28 -28 54 -50 58 -50 4 0 29 23 56 50
l49 50 -49 50 c-27 28 -52 50 -55 50 -4 0 -30 -23 -58 -50z"/>
<path d="M3845 4080 l-50 -50 53 -52 52 -53 50 50 c27 27 50 52 50 56 0 11
-86 99 -96 99 -6 0 -32 -23 -59 -50z"/>
<path d="M4112 3817 l-52 -53 52 -51 53 -52 25 23 c14 12 38 36 53 53 l29 31
-52 51 c-28 28 -52 51 -54 51 -1 0 -25 -24 -54 -53z"/>
<path d="M1129 3809 l-46 -48 54 -53 53 -53 52 53 53 52 -50 50 c-27 27 -54
49 -60 49 -5 -1 -31 -23 -56 -50z"/>
<path d="M866 3550 l-49 -51 39 -40 c65 -67 68 -67 124 -9 l49 50 -50 50 c-27
28 -53 50 -57 50 -4 0 -29 -23 -56 -50z"/>
<path d="M1550 2775 c-93 -29 -176 -132 -183 -226 -3 -40 6 -92 83 -449 17
-80 33 -156 36 -170 3 -14 7 -31 10 -39 2 -8 7 -30 10 -48 3 -19 22 -112 43
-206 l38 -172 -43 -38 c-24 -21 -56 -63 -71 -95 -27 -55 -28 -63 -31 -239 l-4
-183 75 0 75 0 4 173 3 174 29 37 c48 64 60 66 397 66 166 0 303 -1 305 -3 11
-10 -54 -112 -91 -145 -65 -57 -123 -72 -276 -72 -79 0 -130 -4 -134 -11 -9
-14 -10 -128 -1 -137 4 -4 11 -7 14 -7 76 -6 160 -68 187 -138 10 -26 17 -78
18 -137 l2 -95 73 -3 c53 -2 72 0 73 10 1 7 1 55 0 106 -1 105 -12 159 -47
218 -13 22 -24 43 -24 46 0 3 15 9 33 12 45 8 126 48 164 80 l31 26 16 -40
c59 -148 260 -201 394 -103 l32 24 33 -24 c67 -50 156 -65 230 -41 l37 13 0
-187 0 -187 -76 -95 c-42 -52 -83 -104 -93 -115 -9 -11 -41 -51 -72 -90 l-56
-70 0 -98 0 -98 75 3 75 3 1 71 1 70 80 100 c44 54 83 101 86 104 3 3 33 41
68 84 l62 80 -3 480 c-3 472 -3 482 -25 522 -73 137 -245 185 -375 105 l-50
-31 -29 21 c-51 36 -124 57 -174 49 -25 -4 -45 -3 -45 2 0 5 25 127 56 271 68
320 58 274 93 443 18 86 27 156 24 180 -18 135 -142 237 -279 229 -82 -4 -167
-57 -208 -128 -20 -35 -104 -391 -152 -641 -22 -115 -31 -149 -37 -131 -5 17
-139 630 -153 705 -3 14 -16 44 -30 67 -59 102 -193 154 -304 118z m127 -149
c35 -11 59 -63 83 -176 12 -58 28 -132 35 -165 28 -123 165 -763 165 -771 0
-2 -51 -4 -114 -4 l-114 0 -21 93 c-12 50 -23 103 -26 116 -9 50 -56 268 -70
326 -8 33 -17 76 -20 95 -3 19 -10 51 -15 70 -5 19 -18 82 -30 140 -12 58 -24
114 -27 125 -24 113 49 185 154 151z m843 -15 c14 -10 30 -33 36 -51 12 -35
10 -50 -40 -280 -14 -63 -27 -126 -30 -140 -2 -14 -19 -90 -36 -170 -17 -80
-34 -155 -36 -168 -12 -59 -55 -259 -60 -274 -5 -16 -20 -18 -120 -18 -105 0
-115 2 -110 18 3 9 17 73 32 142 14 69 27 130 28 135 6 25 16 72 20 95 2 14
21 102 41 195 20 94 47 226 61 295 34 170 51 211 94 232 39 20 83 16 120 -11z
m139 -1115 c48 -25 57 -59 56 -213 -1 -128 -3 -142 -24 -171 -21 -30 -37 -38
-87 -46 -31 -6 -92 34 -104 67 -16 48 -13 282 5 317 30 58 94 77 154 46z m379
-2 c44 -30 52 -64 52 -206 0 -147 -7 -170 -58 -204 -54 -37 -139 -8 -159 53
-11 33 -10 255 0 298 15 61 112 96 165 59z"/>
<path d="M1440 633 l0 -128 187 -182 188 -183 0 -67 0 -68 75 -3 75 -3 0 101
0 101 -187 185 -188 186 0 94 0 94 -75 0 -75 0 0 -127z"/>
</g>
</svg>
